<svg width="25" height="25" viewBox="0 0 25 25" fill="none" xmlns="http://www.w3.org/2000/svg">
<path d="M23.0248 17.2042H6.25056C5.93279 17.2042 5.62804 17.0779 5.40334 16.8532C5.17864 16.6285 5.0524 16.3238 5.0524 16.006C5.0524 15.6882 5.17864 15.3835 5.40334 15.1588C5.62804 14.9341 5.93279 14.8078 6.25056 14.8078H18.7593C19.5605 14.8079 20.3387 14.5403 20.9704 14.0475C21.6021 13.5548 22.051 12.8651 22.246 12.088L24.223 4.31197C24.2678 4.13513 24.2717 3.95038 24.2344 3.7718C24.197 3.59323 24.1193 3.42555 24.0073 3.28155C23.8908 3.13386 23.7411 3.01568 23.5704 2.93658C23.3997 2.85748 23.2128 2.81968 23.0248 2.82625H5.96301C5.71581 2.12707 5.2584 1.52145 4.65349 1.09244C4.04859 0.663427 3.32579 0.432016 2.5842 0.429932H1.45793C1.14015 0.429932 0.835397 0.556166 0.610698 0.780864C0.386 1.00556 0.259766 1.31032 0.259766 1.62809C0.259766 1.94586 0.386 2.25062 0.610698 2.47532C0.835397 2.70002 1.14015 2.82625 1.45793 2.82625H2.5842C2.8579 2.81828 3.12607 2.90429 3.34407 3.06997C3.56208 3.23565 3.71675 3.47101 3.78235 3.73685L3.85424 4.31197L5.92706 12.4115C4.97375 12.4544 4.07652 12.8743 3.43276 13.5787C2.78899 14.2831 2.45143 15.2144 2.49433 16.1678C2.53723 17.1211 2.95708 18.0183 3.66151 18.6621C4.36594 19.3058 5.29725 19.6434 6.25056 19.6005H6.46623C6.26918 20.1434 6.20586 20.7258 6.28163 21.2984C6.35741 21.871 6.57005 22.4169 6.90155 22.8899C7.23304 23.3628 7.67364 23.749 8.18601 24.0155C8.69839 24.2821 9.26746 24.4213 9.84504 24.4213C10.4226 24.4213 10.9917 24.2821 11.5041 24.0155C12.0164 23.749 12.457 23.3628 12.7885 22.8899C13.12 22.4169 13.3327 21.871 13.4085 21.2984C13.4842 20.7258 13.4209 20.1434 13.2239 19.6005H16.0515C15.8545 20.1434 15.7911 20.7258 15.8669 21.2984C15.9427 21.871 16.1553 22.4169 16.4868 22.8899C16.8183 23.3628 17.2589 23.749 17.7713 24.0155C18.2837 24.2821 18.8527 24.4213 19.4303 24.4213C20.0079 24.4213 20.577 24.2821 21.0893 24.0155C21.6017 23.749 22.0423 23.3628 22.3738 22.8899C22.7053 22.4169 22.918 21.871 22.9937 21.2984C23.0695 20.7258 23.0062 20.1434 22.8091 19.6005H23.0248C23.3426 19.6005 23.6473 19.4742 23.872 19.2496C24.0967 19.0249 24.223 18.7201 24.223 18.4023C24.223 18.0846 24.0967 17.7798 23.872 17.5551C23.6473 17.3304 23.3426 17.2042 23.0248 17.2042ZM21.4912 5.22257L19.9216 11.5009C19.856 11.7668 19.7013 12.0021 19.4833 12.1678C19.2653 12.3335 18.9971 12.4195 18.7234 12.4115H8.38329L6.58605 5.22257H21.4912ZM9.84504 21.9968C9.60807 21.9968 9.37642 21.9265 9.17938 21.7949C8.98234 21.6632 8.82877 21.4761 8.73809 21.2572C8.6474 21.0382 8.62367 20.7973 8.6699 20.5649C8.71614 20.3325 8.83025 20.119 8.99782 19.9514C9.16538 19.7838 9.37887 19.6697 9.61129 19.6235C9.84371 19.5773 10.0846 19.601 10.3036 19.6917C10.5225 19.7824 10.7096 19.9359 10.8413 20.133C10.9729 20.33 11.0432 20.5617 11.0432 20.7986C11.0432 21.1164 10.917 21.4212 10.6923 21.6459C10.4676 21.8706 10.1628 21.9968 9.84504 21.9968ZM19.4303 21.9968C19.1933 21.9968 18.9617 21.9265 18.7647 21.7949C18.5676 21.6632 18.414 21.4761 18.3234 21.2572C18.2327 21.0382 18.209 20.7973 18.2552 20.5649C18.3014 20.3325 18.4155 20.119 18.5831 19.9514C18.7507 19.7838 18.9641 19.6697 19.1966 19.6235C19.429 19.5773 19.6699 19.601 19.8888 19.6917C20.1078 19.7824 20.2949 19.9359 20.4266 20.133C20.5582 20.33 20.6285 20.5617 20.6285 20.7986C20.6285 21.1164 20.5022 21.4212 20.2775 21.6459C20.0528 21.8706 19.7481 21.9968 19.4303 21.9968Z" fill="black"/>
</svg>
