<svg width="21" height="22" viewBox="0 0 21 22" fill="none" xmlns="http://www.w3.org/2000/svg">
<path d="M20.4379 19.7636L16.7279 15.9509C18.168 14.0905 18.8654 11.7292 18.6767 9.35246C18.4881 6.97571 17.4276 4.7642 15.7135 3.17265C13.9993 1.58111 11.7617 0.730497 9.46085 0.795729C7.15997 0.86096 4.97065 1.83707 3.34307 3.52336C1.71549 5.20965 0.773363 7.47793 0.710402 9.86181C0.647442 12.2457 1.46844 14.564 3.00458 16.3399C4.54071 18.1159 6.67523 19.2146 8.96923 19.4101C11.2632 19.6056 13.5423 18.8831 15.3379 17.391L19.0179 21.2038C19.1109 21.3009 19.2215 21.3779 19.3434 21.4305C19.4652 21.4831 19.5959 21.5102 19.7279 21.5102C19.8599 21.5102 19.9907 21.4831 20.1125 21.4305C20.2344 21.3779 20.345 21.3009 20.4379 21.2038C20.6182 21.0106 20.7189 20.7524 20.7189 20.4837C20.7189 20.215 20.6182 19.9568 20.4379 19.7636ZM9.72793 17.391C8.34346 17.391 6.99008 16.9657 5.83894 16.1687C4.6878 15.3718 3.79059 14.2392 3.26077 12.9139C2.73096 11.5887 2.59234 10.1305 2.86243 8.72363C3.13253 7.31679 3.79922 6.02452 4.77818 5.01024C5.75715 3.99596 7.00443 3.30522 8.3623 3.02539C9.72017 2.74555 11.1276 2.88917 12.4067 3.43809C13.6858 3.98702 14.779 4.91659 15.5482 6.10925C16.3174 7.30192 16.7279 8.70412 16.7279 10.1385C16.7279 12.062 15.9904 13.9067 14.6777 15.2668C13.3649 16.6269 11.5844 17.391 9.72793 17.391Z" fill="white"/>
</svg>
